<svg version="1.1" xmlns="http://www.w3.org/2000/svg" viewBox="0 0 591.8401768546246 297.0601406487153" width="1775.5205305638738" height="891.1804219461458">
  <!-- svg-source:excalidraw -->
  
  <defs>
    <style class="style-fonts">
      @font-face {
        font-family: "Virgil";
        src: url("https://excalidraw.com/Virgil.woff2");
      }
      @font-face {
        font-family: "Cascadia";
        src: url("https://excalidraw.com/Cascadia.woff2");
      }
      @font-face {
        font-family: "Assistant";
        src: url("https://excalidraw.com/Assistant-Regular.woff2");
      }
    </style>
    
  </defs>
  <rect x="0" y="0" width="591.8401768546246" height="297.0601406487153" fill="#ffffff"></rect><g transform="translate(189.1866232538165 267.8601406487153) rotate(0 107.8125 9.599999999999994)"><text x="0" y="15.45" font-family="Cascadia, Segoe UI Emoji" font-size="16px" fill="#1e1e1e" text-anchor="start" style="white-space: pre;" direction="ltr" dominant-baseline="alphabetic">(4.1) miss intersection</text></g><g stroke-linecap="round" transform="translate(10.06082565626457 196.70900083438335) rotate(0 71.5 31)"><path d="M0 0 L143 0 L143 62 L0 62" stroke="none" stroke-width="0" fill="#a5d8ff"></path><path d="M0 0 C29.21 0, 58.43 0, 143 0 M0 0 C40.43 0, 80.85 0, 143 0 M143 0 C143 13.03, 143 26.06, 143 62 M143 0 C143 19.71, 143 39.43, 143 62 M143 62 C96.14 62, 49.27 62, 0 62 M143 62 C90.04 62, 37.08 62, 0 62 M0 62 C0 38.52, 0 15.05, 0 0 M0 62 C0 41.69, 0 21.38, 0 0" stroke="#1e1e1e" stroke-width="4" fill="none"></path></g><g stroke-linecap="round" transform="translate(295.49065593089426 196.64194641868585) rotate(0 71.5 31)"><path d="M0 0 L143 0 L143 62 L0 62" stroke="none" stroke-width="0" fill="#a5d8ff"></path><path d="M0 0 C34.53 0, 69.07 0, 143 0 M0 0 C50.21 0, 100.42 0, 143 0 M143 0 C143 14.78, 143 29.56, 143 62 M143 0 C143 17.82, 143 35.64, 143 62 M143 62 C87.11 62, 31.22 62, 0 62 M143 62 C106.64 62, 70.28 62, 0 62 M0 62 C0 39.24, 0 16.48, 0 0 M0 62 C0 37.47, 0 12.94, 0 0" stroke="#1e1e1e" stroke-width="4" fill="none"></path></g><g stroke-linecap="round" transform="translate(153.0899463408432 196.70937653427188) rotate(0 71.5 31)"><path d="M0 0 L143 0 L143 62 L0 62" stroke="none" stroke-width="0" fill="#a5d8ff"></path><path d="M0 0 C43.83 0, 87.66 0, 143 0 M0 0 C48.74 0, 97.48 0, 143 0 M143 0 C143 19.46, 143 38.91, 143 62 M143 0 C143 23.51, 143 47.01, 143 62 M143 62 C102.73 62, 62.47 62, 0 62 M143 62 C104.11 62, 65.21 62, 0 62 M0 62 C0 47.68, 0 33.35, 0 0 M0 62 C0 48.75, 0 35.5, 0 0" stroke="#1e1e1e" stroke-width="4" fill="none"></path></g><g stroke-linecap="round" transform="translate(438.51977661547335 196.64232211857438) rotate(0 71.5 31)"><path d="M0 0 L143 0 L143 62 L0 62" stroke="none" stroke-width="0" fill="#a5d8ff"></path><path d="M0 0 C42.58 0, 85.16 0, 143 0 M0 0 C37.49 0, 74.99 0, 143 0 M143 0 C143 15.71, 143 31.41, 143 62 M143 0 C143 14.75, 143 29.5, 143 62 M143 62 C88.77 62, 34.55 62, 0 62 M143 62 C91.63 62, 40.27 62, 0 62 M0 62 C0 39.94, 0 17.89, 0 0 M0 62 C0 45.61, 0 29.21, 0 0" stroke="#1e1e1e" stroke-width="4" fill="none"></path></g><g stroke-linecap="round" transform="translate(10.102671224201003 72.10910722358255) rotate(0 71.5 31)"><path d="M0 0 L143 0 L143 62 L0 62" stroke="none" stroke-width="0" fill="#a5d8ff"></path><path d="M0 0 C46.88 0, 93.76 0, 143 0 M0 0 C33.34 0, 66.67 0, 143 0 M143 0 C143 18.25, 143 36.51, 143 62 M143 0 C143 19.22, 143 38.44, 143 62 M143 62 C101.57 62, 60.14 62, 0 62 M143 62 C93.41 62, 43.83 62, 0 62 M0 62 C0 39.71, 0 17.41, 0 0 M0 62 C0 48.4, 0 34.79, 0 0" stroke="#1e1e1e" stroke-width="4" fill="none"></path></g><g stroke-linecap="round" transform="translate(295.8718818263105 72) rotate(0 71.5 31)"><path d="M0 0 L143 0 L143 62 L0 62" stroke="none" stroke-width="0" fill="#ffc9c9"></path><path d="M0 0 C38.24 0, 76.47 0, 143 0 M0 0 C33.66 0, 67.32 0, 143 0 M143 0 C143 14.8, 143 29.6, 143 62 M143 0 C143 24.75, 143 49.51, 143 62 M143 62 C87.28 62, 31.57 62, 0 62 M143 62 C97.69 62, 52.39 62, 0 62 M0 62 C0 47.27, 0 32.54, 0 0 M0 62 C0 43.68, 0 25.35, 0 0" stroke="#1e1e1e" stroke-width="4" fill="none"></path></g><g stroke-linecap="round" transform="translate(153.13179190877963 72.10948292347098) rotate(0 71.5 31)"><path d="M0 0 L143 0 L143 62 L0 62" stroke="none" stroke-width="0" fill="#ffec99"></path><path d="M0 0 C41.31 0, 82.61 0, 143 0 M0 0 C38.74 0, 77.48 0, 143 0 M143 0 C143 24.55, 143 49.11, 143 62 M143 0 C143 13.85, 143 27.7, 143 62 M143 62 C90.14 62, 37.27 62, 0 62 M143 62 C91.64 62, 40.27 62, 0 62 M0 62 C0 43.07, 0 24.15, 0 0 M0 62 C0 48.93, 0 35.85, 0 0" stroke="#1e1e1e" stroke-width="4" fill="none"></path></g><g stroke-linecap="round" transform="translate(438.5616221834098 72.04242850777337) rotate(0 71.5 31)"><path d="M0 0 L143 0 L143 62 L0 62" stroke="none" stroke-width="0" fill="#a5d8ff"></path><path d="M0 0 C30.05 0, 60.1 0, 143 0 M0 0 C45.47 0, 90.94 0, 143 0 M143 0 C143 20.32, 143 40.64, 143 62 M143 0 C143 22.96, 143 45.92, 143 62 M143 62 C88.85 62, 34.71 62, 0 62 M143 62 C96.16 62, 49.32 62, 0 62 M0 62 C0 40.76, 0 19.53, 0 0 M0 62 C0 40.85, 0 19.7, 0 0" stroke="#1e1e1e" stroke-width="4" fill="none"></path></g><g stroke-linecap="round" transform="translate(10 134.70900083438335) rotate(0 71.5 31)"><path d="M0 0 L143 0 L143 62 L0 62" stroke="none" stroke-width="0" fill="#a5d8ff"></path><path d="M0 0 C34.09 0, 68.18 0, 143 0 M0 0 C41.11 0, 82.21 0, 143 0 M143 0 C143 24.23, 143 48.46, 143 62 M143 0 C143 15.76, 143 31.53, 143 62 M143 62 C90.51 62, 38.01 62, 0 62 M143 62 C86.42 62, 29.84 62, 0 62 M0 62 C0 41.09, 0 20.19, 0 0 M0 62 C0 44.89, 0 27.79, 0 0" stroke="#1e1e1e" stroke-width="4" fill="none"></path></g><g stroke-linecap="round" transform="translate(295.4298302746297 134.64194641868585) rotate(0 71.5 31)"><path d="M0 0 L143 0 L143 62 L0 62" stroke="none" stroke-width="0" fill="#a5d8ff"></path><path d="M0 0 C44.88 0, 89.75 0, 143 0 M0 0 C54.22 0, 108.43 0, 143 0 M143 0 C143 17.46, 143 34.92, 143 62 M143 0 C143 16.86, 143 33.73, 143 62 M143 62 C109.96 62, 76.93 62, 0 62 M143 62 C112.44 62, 81.89 62, 0 62 M0 62 C0 47.81, 0 33.62, 0 0 M0 62 C0 38.75, 0 15.51, 0 0" stroke="#1e1e1e" stroke-width="4" fill="none"></path></g><g stroke-linecap="round" transform="translate(153.02912068457863 134.70937653427188) rotate(0 71.5 31)"><path d="M0 0 L143 0 L143 62 L0 62" stroke="none" stroke-width="0" fill="#ffc9c9"></path><path d="M0 0 C36.23 0, 72.45 0, 143 0 M0 0 C34.02 0, 68.04 0, 143 0 M143 0 C143 23.51, 143 47.02, 143 62 M143 0 C143 22.27, 143 44.54, 143 62 M143 62 C92.13 62, 41.26 62, 0 62 M143 62 C105.19 62, 67.38 62, 0 62 M0 62 C0 46.34, 0 30.68, 0 0 M0 62 C0 41.89, 0 21.78, 0 0" stroke="#1e1e1e" stroke-width="4" fill="none"></path></g><g stroke-linecap="round" transform="translate(438.4589509592088 134.64232211857438) rotate(0 71.5 31)"><path d="M0 0 L143 0 L143 62 L0 62" stroke="none" stroke-width="0" fill="#a5d8ff"></path><path d="M0 0 C42.1 0, 84.2 0, 143 0 M0 0 C44.33 0, 88.65 0, 143 0 M143 0 C143 17.96, 143 35.93, 143 62 M143 0 C143 21.5, 143 43, 143 62 M143 62 C91.58 62, 40.16 62, 0 62 M143 62 C111.62 62, 80.24 62, 0 62 M0 62 C0 44.47, 0 26.94, 0 0 M0 62 C0 43.84, 0 25.69, 0 0" stroke="#1e1e1e" stroke-width="4" fill="none"></path></g><g stroke-linecap="round" transform="translate(10.041845567936434 10.109107223582555) rotate(0 71.5 31)"><path d="M0 0 L143 0 L143 62 L0 62" stroke="none" stroke-width="0" fill="#a5d8ff"></path><path d="M0 0 C34.14 0, 68.28 0, 143 0 M0 0 C57.09 0, 114.18 0, 143 0 M143 0 C143 24.16, 143 48.31, 143 62 M143 0 C143 19.64, 143 39.29, 143 62 M143 62 C109.03 62, 75.06 62, 0 62 M143 62 C100.74 62, 58.47 62, 0 62 M0 62 C0 38.64, 0 15.28, 0 0 M0 62 C0 44.15, 0 26.29, 0 0" stroke="#1e1e1e" stroke-width="4" fill="none"></path></g><g stroke-linecap="round" transform="translate(295.81105617004596 10) rotate(0 71.5 31)"><path d="M0 0 L143 0 L143 62 L0 62" stroke="none" stroke-width="0" fill="#a5d8ff"></path><path d="M0 0 C56.63 0, 113.26 0, 143 0 M0 0 C31.95 0, 63.89 0, 143 0 M143 0 C143 22.92, 143 45.84, 143 62 M143 0 C143 22.27, 143 44.54, 143 62 M143 62 C99.35 62, 55.7 62, 0 62 M143 62 C112.85 62, 82.69 62, 0 62 M0 62 C0 42.24, 0 22.48, 0 0 M0 62 C0 42.63, 0 23.26, 0 0" stroke="#1e1e1e" stroke-width="4" fill="none"></path></g><g stroke-linecap="round" transform="translate(153.07096625251506 10.109482923470978) rotate(0 71.5 31)"><path d="M0 0 L143 0 L143 62 L0 62" stroke="none" stroke-width="0" fill="#a5d8ff"></path><path d="M0 0 C46.86 0, 93.73 0, 143 0 M0 0 C52.96 0, 105.92 0, 143 0 M143 0 C143 23.48, 143 46.95, 143 62 M143 0 C143 20.31, 143 40.62, 143 62 M143 62 C94.02 62, 45.04 62, 0 62 M143 62 C94.22 62, 45.44 62, 0 62 M0 62 C0 39.48, 0 16.96, 0 0 M0 62 C0 42.15, 0 22.29, 0 0" stroke="#1e1e1e" stroke-width="4" fill="none"></path></g><g stroke-linecap="round" transform="translate(438.8401768546246 10.000375699888423) rotate(0 71.5 31)"><path d="M0 0 L143 0 L143 62 L0 62" stroke="none" stroke-width="0" fill="#a5d8ff"></path><path d="M0 0 C55.89 0, 111.78 0, 143 0 M0 0 C36.36 0, 72.72 0, 143 0 M143 0 C143 22.76, 143 45.52, 143 62 M143 0 C143 24.53, 143 49.06, 143 62 M143 62 C94.78 62, 46.56 62, 0 62 M143 62 C103.55 62, 64.09 62, 0 62 M0 62 C0 38.49, 0 14.98, 0 0 M0 62 C0 38.87, 0 15.73, 0 0" stroke="#1e1e1e" stroke-width="4" fill="none"></path></g><g stroke-linecap="round"><g transform="translate(225.15091564535078 112.18944801435745) rotate(0 -26.566573882277282 -32.544053005789706)"><path d="M0 0 C-11.36 -13.92, -22.73 -27.84, -53.13 -65.09 M0 0 C-11.84 -14.5, -23.68 -29.01, -53.13 -65.09" stroke="#1971c2" stroke-width="4" fill="none"></path></g><g transform="translate(225.15091564535078 112.18944801435745) rotate(0 -26.566573882277282 -32.544053005789706)"><path d="M-31.65 -52.3 C-36.25 -55.03, -40.84 -57.77, -53.13 -65.09 M-31.65 -52.3 C-36.44 -55.15, -41.23 -58, -53.13 -65.09" stroke="#1971c2" stroke-width="4" fill="none"></path></g><g transform="translate(225.15091564535078 112.18944801435745) rotate(0 -26.566573882277282 -32.544053005789706)"><path d="M-44.9 -41.48 C-46.66 -46.53, -48.42 -51.58, -53.13 -65.09 M-44.9 -41.48 C-46.74 -46.74, -48.57 -52, -53.13 -65.09" stroke="#1971c2" stroke-width="4" fill="none"></path></g></g><mask></mask></svg>